<svg width="40" height="40" viewBox="0 0 40 40" fill="none" xmlns="http://www.w3.org/2000/svg">
<g clip-path="url(#clip0_2396_2)">
<path fill-rule="evenodd" clip-rule="evenodd" d="M20.0199 0.5C9.03992 0.5 0.169922 9.44 0.169922 20.49C0.169922 29.33 5.84992 36.81 13.7399 39.46C14.7299 39.66 15.0899 39.03 15.0899 38.5C15.0899 38.04 15.0599 36.45 15.0599 34.79C9.53992 35.98 8.38992 32.41 8.38992 32.41C7.49992 30.09 6.18992 29.5 6.18992 29.5C4.37992 28.28 6.31992 28.28 6.31992 28.28C8.31992 28.41 9.37992 30.33 9.37992 30.33C11.1499 33.38 14.0099 32.51 15.1599 31.99C15.3199 30.7 15.8499 29.81 16.4099 29.31C12.0099 28.85 7.36992 27.13 7.36992 19.45C7.36992 17.27 8.15992 15.48 9.40992 14.09C9.20992 13.59 8.51992 11.54 9.60992 8.79C9.60992 8.79 11.2899 8.26 15.0599 10.84C18.3078 9.95833 21.732 9.95833 24.9799 10.84C28.7599 8.26 30.4299 8.79 30.4299 8.79C31.5099 11.54 30.8199 13.59 30.6299 14.09C31.9099 15.48 32.6699 17.27 32.6699 19.45C32.6699 27.13 28.0399 28.82 23.5999 29.31C24.3199 29.94 24.9499 31.13 24.9499 33.02C24.9499 35.7 24.9199 37.85 24.9199 38.51C24.9199 39.04 25.2799 39.67 26.2699 39.47C34.1599 36.82 39.8399 29.34 39.8399 20.5C39.8699 9.44 30.9699 0.51 20.0299 0.51L20.0199 0.5Z" fill="#F6F1D7"/>
</g>
<defs>
<clipPath id="clip0_2396_2">
<rect width="40" height="40" fill="white"/>
</clipPath>
</defs>
</svg>
