<svg width="33" height="33" viewBox="0 0 33 33" fill="none" xmlns="http://www.w3.org/2000/svg">
<path d="M21.6263 5.34031C23.5984 3.36046 26.4832 3.31888 28.0802 4.9221C29.6803 6.52834 29.6371 9.43129 27.6636 11.4125L24.3309 14.7582C23.929 15.1617 23.9302 15.8147 24.3336 16.2166C24.7372 16.6185 25.3902 16.6173 25.7921 16.2137L29.1248 12.8681C31.7529 10.2298 32.0829 6.01776 29.5414 3.46651C26.9971 0.912246 22.7943 1.24515 20.1649 3.88473L13.4994 10.5761C10.8714 13.2143 10.5415 17.4265 13.0828 19.9776C13.4848 20.3812 14.1377 20.3824 14.5413 19.9805C14.9447 19.5786 14.946 18.9256 14.544 18.5221C12.944 16.9159 12.9871 14.0129 14.9607 12.0317L21.6263 5.34031Z" fill="#CA89FF"/>
<path opacity="0.5" d="M19.9162 13.0222C19.5143 12.6187 18.8613 12.6174 18.4577 13.0194C18.0543 13.4213 18.0531 14.0742 18.455 14.4778C20.0551 16.0841 20.0119 18.987 18.0384 20.9682L11.3729 27.6596C9.4007 29.6395 6.51585 29.681 4.91883 28.0778C3.3188 26.4716 3.36189 23.5686 5.33543 21.5874L8.66821 18.2416C9.07016 17.8381 9.0689 17.1852 8.66539 16.7832C8.26188 16.3813 7.60894 16.3826 7.20698 16.786L3.8742 20.1318C1.24616 22.77 0.916217 26.9822 3.45759 29.5333C6.002 32.0877 10.2048 31.7548 12.8341 29.1152L19.4996 22.4238C22.1276 19.7856 22.4576 15.5735 19.9162 13.0222Z" fill="#F9F4DA"/>
</svg>
