<svg width="40" height="40" viewBox="0 0 40 40" fill="none" xmlns="http://www.w3.org/2000/svg">
<circle cx="20" cy="20" r="20" fill="#0F0D0E"/>
<path d="M11.292 15.642C11.364 15.558 11.466 15.516 11.598 15.516C11.73 15.516 11.922 15.576 12.174 15.696C12.438 15.816 12.648 15.984 12.804 16.2C12.972 16.416 13.056 16.578 13.056 16.686C13.056 16.782 13.02 16.866 12.948 16.938L9.312 20.97L13.002 24.768C13.074 24.84 13.11 24.93 13.11 25.038C13.11 25.134 13.026 25.296 12.858 25.524C12.69 25.74 12.48 25.908 12.228 26.028C11.976 26.136 11.784 26.19 11.652 26.19C11.532 26.19 11.43 26.148 11.346 26.064L7.188 21.456C7.02 21.288 6.936 21.138 6.936 21.006C6.936 20.874 6.996 20.748 7.116 20.628L11.292 15.642ZM25.4108 26.694C25.4108 26.898 24.8048 27 23.5928 27C22.3808 27 21.7748 26.898 21.7748 26.694V22.554H19.2548V26.694C19.2548 26.898 18.6488 27 17.4368 27C16.2248 27 15.6188 26.898 15.6188 26.694V14.76C15.6188 14.508 16.2248 14.382 17.4368 14.382C18.6488 14.382 19.2548 14.508 19.2548 14.76V18.99H21.7748V14.796C21.7748 14.628 22.0748 14.508 22.6748 14.436C22.9868 14.412 23.2928 14.4 23.5928 14.4L24.5108 14.436C25.1108 14.508 25.4108 14.628 25.4108 14.796V26.694ZM33.2327 20.628C33.3527 20.748 33.4127 20.874 33.4127 21.006C33.4127 21.138 33.3287 21.288 33.1607 21.456L29.0027 26.064C28.9187 26.148 28.8107 26.19 28.6787 26.19C28.5587 26.19 28.3667 26.136 28.1027 26.028C27.8507 25.908 27.6407 25.74 27.4727 25.524C27.3167 25.296 27.2387 25.134 27.2387 25.038C27.2387 24.93 27.2747 24.84 27.3467 24.768L31.0367 20.97L27.4007 16.938C27.3287 16.866 27.2927 16.782 27.2927 16.686C27.2927 16.578 27.3707 16.416 27.5267 16.2C27.6947 15.984 27.9047 15.822 28.1567 15.714C28.4207 15.594 28.6127 15.534 28.7327 15.534C28.8647 15.534 28.9727 15.57 29.0567 15.642L33.2327 20.628Z" fill="#F9F4DA"/>
</svg>
