<svg width="711" height="109" viewBox="0 0 711 109" fill="none" xmlns="http://www.w3.org/2000/svg">
<path d="M25.8594 71.75H46.2031C48.8906 71.75 51.1719 70.9062 53.0469 69.2188C54.9219 67.5312 55.8594 65.1562 55.8594 62.0938C55.8594 59.8438 54.875 57.8281 52.9062 56.0469C50.9688 54.2656 48.7344 53.375 46.2031 53.375H17.2344V104H13.8594V50H46.2031C49.6719 50 52.7031 51.2188 55.2969 53.6562C57.9219 56.0938 59.2344 58.9062 59.2344 62.0938C59.2344 66.0625 57.9688 69.2344 55.4375 71.6094C52.9062 73.9531 49.8281 75.125 46.2031 75.125H25.8594V71.75ZM25.8594 78.5H46.2031C50.7031 78.5 54.5625 76.9688 57.7812 73.9062C61 70.8438 62.6094 66.9062 62.6094 62.0938C62.6094 58 60.9688 54.4062 57.6875 51.3125C54.4062 48.1875 50.5781 46.625 46.2031 46.625H10.4844V104H7.10938V43.25H46.2031C51.5156 43.25 56.1406 45.1406 60.0781 48.9219C64.0156 52.6719 65.9844 57.0625 65.9844 62.0938C65.9844 67.7188 64.0312 72.4219 60.125 76.2031C56.25 79.9844 51.6094 81.875 46.2031 81.875H25.8594V78.5ZM25.8594 85.25H46.2031C50.3594 85.25 54.2031 84.25 57.7344 82.25C61.2656 80.25 64.0781 77.4688 66.1719 73.9062C68.2969 70.3438 69.3594 66.4062 69.3594 62.0938C69.3594 58.1875 68.3125 54.5312 66.2188 51.125C64.125 47.6875 61.2812 44.9531 57.6875 42.9219C54.125 40.8906 50.2969 39.875 46.2031 39.875H3.73438V104H0.359375V36.5H46.2031C49.7344 36.5 53.125 37.2031 56.375 38.6094C59.6562 39.9844 62.4844 41.8281 64.8594 44.1406C67.2344 46.4219 69.1406 49.1406 70.5781 52.2969C72.0156 55.4531 72.7344 58.7188 72.7344 62.0938C72.7344 67.5625 71.4844 72.3438 68.9844 76.4375C66.4844 80.5 63.125 83.5938 58.9062 85.7188L65.9844 104H62.375L55.6719 87.0781C54.8281 87.3594 53.8438 87.6406 52.7188 87.9219L59.0469 104H55.4375L49.25 88.4844C48.2812 88.5781 47.2656 88.625 46.2031 88.625L52.1562 104H48.5938L42.6875 88.625H39.6406L45.3125 104H41.75L36.0312 88.625H25.8594V85.25ZM23.9844 104H20.6094V56.75H46.2031C47.9531 56.75 49.4375 57.2812 50.6562 58.3438C51.875 59.375 52.4844 60.625 52.4844 62.0938C52.4844 66.2812 50.3906 68.375 46.2031 68.375H25.8594V65H46.2031C48.1406 65 49.1094 64.0312 49.1094 62.0938C49.1094 61.5625 48.8125 61.1094 48.2188 60.7344C47.6562 60.3281 46.9844 60.125 46.2031 60.125H23.9844V104ZM97.1094 104H93.7344V36.5H97.1094V104ZM90.3594 104H86.9844V36.5H90.3594V104ZM83.6094 104H80.2344V36.5H83.6094V104ZM103.859 87.125H136.156V90.5H103.859V93.875H136.156V97.25H103.859V100.625H136.156V104H100.484V36.5H136.156V39.875H103.859V43.25H136.156V46.625H103.859V50H136.156V53.375H103.859V61.7656H134.281V65.1406H103.859V68.5156H134.281V71.8906H103.859V75.2656H134.281V78.6406H103.859V87.125Z" fill="#F9F4DA"/>
<path d="M144.125 60.125V56.75H181.25V60.125H144.125ZM144.125 66.875V63.5H181.25V66.875H144.125ZM144.125 73.625V70.25H181.25V73.625H144.125Z" fill="#CEC9B4"/>
<path d="M290.188 0.5H294.688V104H290.188V0.5ZM191.188 0.5H195.688V104H191.188V0.5ZM281.188 0.5H285.688V104H281.188V0.5ZM272.188 0.5H276.688V104H272.188V0.5ZM263.188 0.5H267.688V104H263.188V63.4375H222.688V104H218.188V0.5H222.688V40.9375H263.188V0.5ZM209.188 0.5H213.688V104H209.188V0.5ZM200.188 0.5H204.688V104H200.188V0.5ZM263.188 58.9375V54.4375H222.688V58.9375H263.188ZM263.188 49.9375V45.4375H222.688V49.9375H263.188ZM340.938 46.3125C337.438 49.8125 335.688 54.0417 335.688 59C335.688 63.9583 337.438 68.2083 340.938 71.75C344.479 75.25 348.729 77 353.688 77C358.646 77 362.875 75.25 366.375 71.75C369.917 68.2083 371.688 63.9583 371.688 59C371.688 54.0417 369.917 49.8125 366.375 46.3125C362.875 42.7708 358.646 41 353.688 41C348.729 41 344.479 42.7708 340.938 46.3125ZM337.75 74.9375C333.375 70.5208 331.188 65.2083 331.188 59C331.188 52.7917 333.375 47.5 337.75 43.125C342.167 38.7083 347.479 36.5 353.688 36.5C359.896 36.5 365.188 38.7083 369.562 43.125C373.979 47.5 376.188 52.7917 376.188 59C376.188 65.2083 373.979 70.5208 369.562 74.9375C365.188 79.3125 359.896 81.5 353.688 81.5C347.479 81.5 342.167 79.3125 337.75 74.9375ZM334.562 39.9375C329.312 45.2292 326.688 51.5833 326.688 59C326.688 66.4167 329.312 72.7708 334.562 78.0625C339.854 83.3542 346.229 86 353.688 86C361.146 86 367.5 83.3542 372.75 78.0625C378.042 72.7708 380.688 66.4167 380.688 59C380.688 51.5833 378.042 45.2292 372.75 39.9375C367.5 34.6458 361.146 32 353.688 32C346.229 32 339.854 34.6458 334.562 39.9375ZM326.375 74.8125C323.583 69.9792 322.188 64.7083 322.188 59C322.188 53.2917 323.583 48.0208 326.375 43.1875C329.208 38.3542 333.042 34.5417 337.875 31.75C342.708 28.9167 347.979 27.5 353.688 27.5C359.396 27.5 364.667 28.9167 369.5 31.75C374.333 34.5417 378.146 38.3542 380.938 43.1875C383.771 48.0208 385.188 53.2917 385.188 59C385.188 64.7083 383.771 69.9792 380.938 74.8125C378.146 79.6458 374.333 83.4792 369.5 86.3125C364.667 89.1042 359.396 90.5 353.688 90.5C347.979 90.5 342.708 89.1042 337.875 86.3125C333.042 83.4792 329.208 79.6458 326.375 74.8125ZM320.5 45.0625C318.625 49.4792 317.688 54.125 317.688 59C317.688 63.875 318.625 68.5417 320.5 73C322.417 77.4167 324.979 81.25 328.188 84.5C331.438 87.7083 335.271 90.2708 339.688 92.1875C344.146 94.0625 348.812 95 353.688 95C358.562 95 363.208 94.0625 367.625 92.1875C372.083 90.2708 375.917 87.7083 379.125 84.5C382.375 81.25 384.938 77.4167 386.812 73C388.729 68.5417 389.688 63.875 389.688 59C389.688 54.125 388.729 49.4792 386.812 45.0625C384.938 40.6042 382.375 36.7708 379.125 33.5625C375.917 30.3125 372.083 27.75 367.625 25.875C363.208 23.9583 358.562 23 353.688 23C348.812 23 344.146 23.9583 339.688 25.875C335.271 27.75 331.438 30.3125 328.188 33.5625C324.979 36.7708 322.417 40.6042 320.5 45.0625ZM316.375 74.75C314.25 69.75 313.188 64.5 313.188 59C313.188 53.5 314.25 48.25 316.375 43.25C318.542 38.25 321.417 33.9583 325 30.375C328.625 26.75 332.938 23.875 337.938 21.75C342.938 19.5833 348.188 18.5 353.688 18.5C359.188 18.5 364.438 19.5833 369.438 21.75C374.438 23.875 378.729 26.75 382.312 30.375C385.938 33.9583 388.812 38.25 390.938 43.25C393.104 48.25 394.188 53.5 394.188 59C394.188 64.5 393.104 69.75 390.938 74.75C388.812 79.75 385.938 84.0625 382.312 87.6875C378.729 91.2708 374.438 94.1458 369.438 96.3125C364.438 98.4375 359.188 99.5 353.688 99.5C348.188 99.5 342.938 98.4375 337.938 96.3125C332.938 94.1458 328.625 91.2708 325 87.6875C321.417 84.0625 318.542 79.75 316.375 74.75ZM312.25 41.5625C309.875 47.1042 308.688 52.9167 308.688 59C308.688 65.0833 309.875 70.9167 312.25 76.5C314.625 82.0417 317.812 86.8333 321.812 90.875C325.854 94.875 330.646 98.0625 336.188 100.438C341.771 102.812 347.604 104 353.688 104C359.771 104 365.583 102.812 371.125 100.438C376.708 98.0625 381.5 94.875 385.5 90.875C389.542 86.8333 392.75 82.0417 395.125 76.5C397.5 70.9167 398.688 65.0833 398.688 59C398.688 52.9167 397.5 47.1042 395.125 41.5625C392.75 35.9792 389.542 31.1875 385.5 27.1875C381.5 23.1458 376.708 19.9375 371.125 17.5625C365.583 15.1875 359.771 14 353.688 14C347.604 14 341.771 15.1875 336.188 17.5625C330.646 19.9375 325.854 23.1458 321.812 27.1875C317.812 31.1875 314.625 35.9792 312.25 41.5625ZM308.125 78.25C305.5 72.125 304.188 65.7083 304.188 59C304.188 52.2917 305.5 45.8958 308.125 39.8125C310.75 33.6875 314.271 28.4167 318.688 24C323.104 19.5833 328.354 16.0625 334.438 13.4375C340.562 10.8125 346.979 9.5 353.688 9.5C360.396 9.5 366.792 10.8125 372.875 13.4375C379 16.0625 384.271 19.5833 388.688 24C393.104 28.4167 396.625 33.6875 399.25 39.8125C401.875 45.8958 403.188 52.2917 403.188 59C403.188 65.7083 401.875 72.125 399.25 78.25C396.625 84.3333 393.104 89.5833 388.688 94C384.271 98.4167 379 101.938 372.875 104.562C366.792 107.188 360.396 108.5 353.688 108.5C346.979 108.5 340.562 107.188 334.438 104.562C328.354 101.938 323.104 98.4167 318.688 94C314.271 89.5833 310.75 84.3333 308.125 78.25ZM457.062 46.3125C453.562 49.8125 451.812 54.0417 451.812 59C451.812 63.9583 453.562 68.2083 457.062 71.75C460.604 75.25 464.854 77 469.812 77C474.771 77 479 75.25 482.5 71.75C486.042 68.2083 487.812 63.9583 487.812 59C487.812 54.0417 486.042 49.8125 482.5 46.3125C479 42.7708 474.771 41 469.812 41C464.854 41 460.604 42.7708 457.062 46.3125ZM453.875 74.9375C449.5 70.5208 447.312 65.2083 447.312 59C447.312 52.7917 449.5 47.5 453.875 43.125C458.292 38.7083 463.604 36.5 469.812 36.5C476.021 36.5 481.312 38.7083 485.688 43.125C490.104 47.5 492.312 52.7917 492.312 59C492.312 65.2083 490.104 70.5208 485.688 74.9375C481.312 79.3125 476.021 81.5 469.812 81.5C463.604 81.5 458.292 79.3125 453.875 74.9375ZM450.688 39.9375C445.438 45.2292 442.812 51.5833 442.812 59C442.812 66.4167 445.438 72.7708 450.688 78.0625C455.979 83.3542 462.354 86 469.812 86C477.271 86 483.625 83.3542 488.875 78.0625C494.167 72.7708 496.812 66.4167 496.812 59C496.812 51.5833 494.167 45.2292 488.875 39.9375C483.625 34.6458 477.271 32 469.812 32C462.354 32 455.979 34.6458 450.688 39.9375ZM442.5 74.8125C439.708 69.9792 438.312 64.7083 438.312 59C438.312 53.2917 439.708 48.0208 442.5 43.1875C445.333 38.3542 449.167 34.5417 454 31.75C458.833 28.9167 464.104 27.5 469.812 27.5C475.521 27.5 480.792 28.9167 485.625 31.75C490.458 34.5417 494.271 38.3542 497.062 43.1875C499.896 48.0208 501.312 53.2917 501.312 59C501.312 64.7083 499.896 69.9792 497.062 74.8125C494.271 79.6458 490.458 83.4792 485.625 86.3125C480.792 89.1042 475.521 90.5 469.812 90.5C464.104 90.5 458.833 89.1042 454 86.3125C449.167 83.4792 445.333 79.6458 442.5 74.8125ZM436.625 45.0625C434.75 49.4792 433.812 54.125 433.812 59C433.812 63.875 434.75 68.5417 436.625 73C438.542 77.4167 441.104 81.25 444.312 84.5C447.562 87.7083 451.396 90.2708 455.812 92.1875C460.271 94.0625 464.938 95 469.812 95C474.688 95 479.333 94.0625 483.75 92.1875C488.208 90.2708 492.042 87.7083 495.25 84.5C498.5 81.25 501.062 77.4167 502.938 73C504.854 68.5417 505.812 63.875 505.812 59C505.812 54.125 504.854 49.4792 502.938 45.0625C501.062 40.6042 498.5 36.7708 495.25 33.5625C492.042 30.3125 488.208 27.75 483.75 25.875C479.333 23.9583 474.688 23 469.812 23C464.938 23 460.271 23.9583 455.812 25.875C451.396 27.75 447.562 30.3125 444.312 33.5625C441.104 36.7708 438.542 40.6042 436.625 45.0625ZM432.5 74.75C430.375 69.75 429.312 64.5 429.312 59C429.312 53.5 430.375 48.25 432.5 43.25C434.667 38.25 437.542 33.9583 441.125 30.375C444.75 26.75 449.062 23.875 454.062 21.75C459.062 19.5833 464.312 18.5 469.812 18.5C475.312 18.5 480.562 19.5833 485.562 21.75C490.562 23.875 494.854 26.75 498.438 30.375C502.062 33.9583 504.938 38.25 507.062 43.25C509.229 48.25 510.312 53.5 510.312 59C510.312 64.5 509.229 69.75 507.062 74.75C504.938 79.75 502.062 84.0625 498.438 87.6875C494.854 91.2708 490.562 94.1458 485.562 96.3125C480.562 98.4375 475.312 99.5 469.812 99.5C464.312 99.5 459.062 98.4375 454.062 96.3125C449.062 94.1458 444.75 91.2708 441.125 87.6875C437.542 84.0625 434.667 79.75 432.5 74.75ZM428.375 41.5625C426 47.1042 424.812 52.9167 424.812 59C424.812 65.0833 426 70.9167 428.375 76.5C430.75 82.0417 433.938 86.8333 437.938 90.875C441.979 94.875 446.771 98.0625 452.312 100.438C457.896 102.812 463.729 104 469.812 104C475.896 104 481.708 102.812 487.25 100.438C492.833 98.0625 497.625 94.875 501.625 90.875C505.667 86.8333 508.875 82.0417 511.25 76.5C513.625 70.9167 514.812 65.0833 514.812 59C514.812 52.9167 513.625 47.1042 511.25 41.5625C508.875 35.9792 505.667 31.1875 501.625 27.1875C497.625 23.1458 492.833 19.9375 487.25 17.5625C481.708 15.1875 475.896 14 469.812 14C463.729 14 457.896 15.1875 452.312 17.5625C446.771 19.9375 441.979 23.1458 437.938 27.1875C433.938 31.1875 430.75 35.9792 428.375 41.5625ZM424.25 78.25C421.625 72.125 420.312 65.7083 420.312 59C420.312 52.2917 421.625 45.8958 424.25 39.8125C426.875 33.6875 430.396 28.4167 434.812 24C439.229 19.5833 444.479 16.0625 450.562 13.4375C456.688 10.8125 463.104 9.5 469.812 9.5C476.521 9.5 482.917 10.8125 489 13.4375C495.125 16.0625 500.396 19.5833 504.812 24C509.229 28.4167 512.75 33.6875 515.375 39.8125C518 45.8958 519.312 52.2917 519.312 59C519.312 65.7083 518 72.125 515.375 78.25C512.75 84.3333 509.229 89.5833 504.812 94C500.396 98.4167 495.125 101.938 489 104.562C482.917 107.188 476.521 108.5 469.812 108.5C463.104 108.5 456.688 107.188 450.562 104.562C444.479 101.938 439.229 98.4167 434.812 94C430.396 89.5833 426.875 84.3333 424.25 78.25ZM624 14L598.938 59.375L623.625 104H618.625L593.938 59.375L619 14H624ZM613.938 14L588.875 59.375L613.562 104H608.562L583.875 59.375L608.938 14H613.938ZM603.875 14L578.812 59.375L603.5 104H598.5L573.812 59.375L598.875 14H603.875ZM593.812 14L568.688 59.375L593.438 104H588.438L563.688 59.375L588.812 14H593.812ZM556.438 14V104H560.938V14H556.438ZM547.438 14V104H551.938V14H547.438ZM538.438 14V104H542.938V14H538.438ZM529.438 14V104H533.938V14H529.438ZM673.438 61.1875H666.312C657.562 61.1875 650.833 59.4167 646.125 55.875C641.417 52.2917 639.062 47.375 639.062 41.125C639.062 35.2917 641.833 30.4375 647.375 26.5625C652.917 22.6458 660.688 20.6875 670.688 20.6875C677.354 20.6875 683.562 21.6042 689.312 23.4375C695.104 25.2708 699.917 27.8542 703.75 31.1875L700.25 34C696.833 31.2083 692.542 29.0417 687.375 27.5C682.208 25.9583 676.646 25.1875 670.688 25.1875C661.896 25.1875 655.167 26.6875 650.5 29.6875C645.875 32.6875 643.562 36.5 643.562 41.125C643.562 46.125 645.458 49.9792 649.25 52.6875C653.083 55.3542 658.771 56.6875 666.312 56.6875H673.188C682.062 56.6875 688.854 58.4792 693.562 62.0625C698.312 65.6042 700.688 70.5 700.688 76.75C700.688 82.5833 697.917 87.4583 692.375 91.375C686.833 95.25 679.062 97.1875 669.062 97.1875C662.396 97.1875 656.167 96.2708 650.375 94.4375C644.625 92.6042 639.833 90.0208 636 86.6875L639.5 83.875C642.917 86.6667 647.208 88.8333 652.375 90.375C657.542 91.9167 663.104 92.6875 669.062 92.6875C677.854 92.6875 684.562 91.1875 689.188 88.1875C693.854 85.1875 696.188 81.375 696.188 76.75C696.188 71.75 694.271 67.9167 690.438 65.25C686.646 62.5417 680.979 61.1875 673.438 61.1875ZM673.438 70.1875H666.312C654.729 70.1875 645.792 67.5625 639.5 62.3125C633.208 57.0208 630.062 49.9583 630.062 41.125C630.062 37.0833 630.958 33.2917 632.75 29.75C634.542 26.2083 637.104 23.1042 640.438 20.4375C643.812 17.7292 648.104 15.6042 653.312 14.0625C658.521 12.4792 664.312 11.6875 670.688 11.6875C678.729 11.6875 686.25 12.9167 693.25 15.375C700.25 17.7917 706.083 21.1875 710.75 25.5625L707.125 28.25C702.875 24.4167 697.562 21.4583 691.188 19.375C684.812 17.25 677.979 16.1875 670.688 16.1875C659.438 16.1875 650.604 18.5625 644.188 23.3125C637.771 28.0625 634.562 34 634.562 41.125C634.562 48.6667 637.312 54.6458 642.812 59.0625C648.312 63.4792 656.146 65.6875 666.312 65.6875H673.188C685.521 65.6875 691.688 69.375 691.688 76.75C691.688 80.0833 689.792 82.8333 686 85C682.25 87.125 676.604 88.1875 669.062 88.1875C663.771 88.1875 658.854 87.5833 654.312 86.375C649.771 85.125 646.021 83.3542 643.062 81.0625L646.625 78.3125C651.833 81.8958 659.312 83.6875 669.062 83.6875C675.312 83.6875 679.896 83.0417 682.812 81.75C685.729 80.4583 687.188 78.7917 687.188 76.75C687.188 74.375 686.167 72.6875 684.125 71.6875C682.083 70.6875 678.521 70.1875 673.438 70.1875ZM673.438 52.1875H666.312C654.146 52.1875 648.062 48.5 648.062 41.125C648.062 37.7917 649.938 35.0625 653.688 32.9375C657.479 30.7708 663.146 29.6875 670.688 29.6875C675.979 29.6875 680.896 30.3125 685.438 31.5625C689.979 32.7708 693.729 34.5208 696.688 36.8125L693.125 39.5625C687.917 35.9792 680.438 34.1875 670.688 34.1875C664.438 34.1875 659.854 34.8333 656.938 36.125C654.021 37.4167 652.562 39.0833 652.562 41.125C652.562 43.5 653.583 45.1875 655.625 46.1875C657.667 47.1875 661.229 47.6875 666.312 47.6875H673.438C685.021 47.6875 693.958 50.3333 700.25 55.625C706.542 60.875 709.688 67.9167 709.688 76.75C709.688 80.7917 708.792 84.5833 707 88.125C705.208 91.6667 702.625 94.7917 699.25 97.5C695.917 100.167 691.646 102.292 686.438 103.875C681.229 105.417 675.438 106.188 669.062 106.188C661.021 106.188 653.5 104.979 646.5 102.562C639.5 100.104 633.667 96.6875 629 92.3125L632.625 89.625C636.875 93.4583 642.188 96.4375 648.562 98.5625C654.938 100.646 661.771 101.688 669.062 101.688C680.312 101.688 689.146 99.3125 695.562 94.5625C701.979 89.8125 705.188 83.875 705.188 76.75C705.188 69.2083 702.438 63.2292 696.938 58.8125C691.438 54.3958 683.604 52.1875 673.438 52.1875Z" fill="#9BBFA0"/>
</svg>
